<?xml version="1.0" encoding="UTF-8"?>
<svg width="264px" height="185px" viewBox="0 0 264 185" version="1.1" xmlns="http://www.w3.org/2000/svg" xmlns:xlink="http://www.w3.org/1999/xlink">
    <!-- Generator: sketchtool 54.1 (76490) - https://sketchapp.com -->
    <title>4D1B367B-AEBA-43DD-84C3-26A7665B81B2</title>
    <desc>Created with sketchtool.</desc>
    <defs>
        <linearGradient x1="0.805669611%" y1="50.5900633%" x2="100%" y2="50.5451535%" id="linearGradient-1">
            <stop stop-color="#E9EFF2" offset="0%"></stop>
            <stop stop-color="#E7ECEF" offset="54.5159417%"></stop>
            <stop stop-color="#F3F8FB" offset="98.4982052%"></stop>
        </linearGradient>
        <linearGradient x1="0.805669611%" y1="50.1369482%" x2="100%" y2="50.126525%" id="linearGradient-2">
            <stop stop-color="#E9EFF2" offset="0%"></stop>
            <stop stop-color="#E7ECEF" offset="54.5159417%"></stop>
            <stop stop-color="#F3F8FB" offset="98.4982052%"></stop>
        </linearGradient>
    </defs>
    <g id="Asset-Artboard-Page" stroke="none" stroke-width="1" fill="none" fill-rule="evenodd">
        <g id="Fluxia/Ilustration/report-informe" transform="translate(0.500000, 0.000000)">
            <g id="bill" transform="translate(36.372340, 0.000000)">
                <g id="bg" transform="translate(2.564716, 0.000000)" fill-rule="nonzero">
                    <path d="M40.7618935,20.8767363 C40.7618935,20.8767363 14.3282159,42.6699078 4.5053519,69.5934034 C-5.31751213,96.5168989 2.24412689,126.75926 24.9717892,145.571876 C47.6994516,164.384492 81.434022,153.982524 113.206584,162.140511 C144.979147,170.298497 176.11053,160.504631 183.338756,127.157524 C190.566982,93.8104174 167.681162,86.868635 156.781117,52.4295143 C145.881072,17.9903937 103.952233,-26.8464123 40.7618935,20.8767363 Z" id="Path" fill="#0057FF"></path>
                    <path d="M40.7618935,20.8767363 C40.7618935,20.8767363 14.3282159,42.6699078 4.5053519,69.5934034 C-5.31751213,96.5168989 2.24412689,126.75926 24.9717892,145.571876 C47.6994516,164.384492 81.434022,153.982524 113.206584,162.140511 C144.979147,170.298497 176.11053,160.504631 183.338756,127.157524 C190.566982,93.8104174 167.681162,86.868635 156.781117,52.4295143 C145.881072,17.9903937 103.952233,-26.8464123 40.7618935,20.8767363 Z" id="Path" fill="#FFFFFF" opacity="0.7"></path>
                </g>
                <g id="line" transform="translate(0.427453, 165.300924)" stroke="#263238">
                    <path d="M7.65995253,0.625231463 L183.804664,0.625231463" id="Path"></path>
                    <path d="M0.170981088,0.625231463 L2.92805108,0.625231463" id="Path"></path>
                </g>
                <g id="ics" transform="translate(0.000000, 4.282407)" stroke="#263238">
                    <rect id="Rectangle" x="60.8393468" y="22.1871529" width="23.492801" height="14.804283" rx="1.66"></rect>
                    <rect id="Rectangle" x="60.8393468" y="30.918982" width="23.492801" height="3.41736103"></rect>
                    <ellipse id="Oval" cx="80.6389562" cy="25.0349526" rx="1.61149669" ry="1.61446753"></ellipse>
                    <ellipse id="Oval" cx="78.1768256" cy="25.0349526" rx="1.61149669" ry="1.61446753"></ellipse>
                    <path d="M62.925317,24.5596052 L69.3670292,24.5596052" id="Path"></path>
                    <rect id="Rectangle" x="10.9855351" y="88.2175902" width="23.492801" height="14.804283" rx="1.66"></rect>
                    <rect id="Rectangle" x="10.9855351" y="96.9494193" width="23.492801" height="3.41736103"></rect>
                    <path d="M32.392366,91.0653926 C32.392366,91.9570384 31.6708743,92.6798601 30.7808693,92.6798601 C29.8908643,92.6798601 29.1693726,91.9570384 29.1693726,91.0653926 C29.1693726,90.1737468 29.8908643,89.450925 30.7808693,89.450925 C31.6708743,89.450925 32.392366,90.1737468 32.392366,91.0653926 L32.392366,91.0653926 Z" id="Path"></path>
                    <ellipse id="Oval" cx="28.3187413" cy="91.0653926" rx="1.61149669" ry="1.61446753"></ellipse>
                    <path d="M13.0672301,90.5900452 L19.5089423,90.5900452" id="Path"></path>
                    <path d="M113.907597,26.2083338 C113.859277,26.2164969 113.823466,26.2577557 113.822106,26.3068291 L113.822106,26.9406254 C113.832476,27.0068734 113.810618,27.074097 113.763288,27.1215139 C113.715959,27.1689308 113.648859,27.1908296 113.582733,27.1804403 L112.7492,27.1804403 C112.683074,27.1908296 112.615974,27.1689308 112.568644,27.1215139 C112.521314,27.074097 112.499456,27.0068734 112.509826,26.9406254 L112.539748,26.2939819 C112.537263,26.2444776 112.502412,26.2025801 112.454257,26.1912041 C110.847035,25.9942134 109.919463,25.0221069 109.919463,23.6645837 L109.919463,23.0607643 C109.910963,22.9949168 109.933434,22.9288443 109.980296,22.8818954 C110.027159,22.8349464 110.09311,22.8124336 110.158836,22.8209494 L111.620725,22.8209494 C111.778882,22.8209494 111.864373,22.889468 111.864373,23.0008106 L111.864373,23.2020837 C111.845925,23.5775089 111.992513,23.9421968 112.265508,24.2000427 C112.538503,24.4578886 112.910517,24.5830257 113.283516,24.5424773 C114.185441,24.5424773 114.565874,23.9900467 114.565874,23.4247689 C114.565874,22.4226856 112.736376,22.2685189 111.381351,21.3949078 C110.526446,20.8553244 109.902365,20.1658568 109.902365,18.9667827 C109.902365,17.4850697 110.821388,16.4401623 112.441434,16.2003475 C112.487235,16.1890688 112.52024,16.1490421 112.52265,16.1018521 L112.497003,15.3395836 C112.486632,15.2733356 112.508491,15.2061121 112.555821,15.1586951 C112.60315,15.1112782 112.67025,15.0893794 112.736376,15.0997688 L113.539987,15.0997688 C113.605714,15.0912529 113.671665,15.1137657 113.718527,15.1607147 C113.76539,15.2076636 113.787861,15.2737362 113.779361,15.3395836 L113.779361,16.0847225 C113.778626,16.1330771 113.81304,16.174813 113.860577,16.1832179 C115.570388,16.3673614 116.510784,17.3994216 116.510784,18.8511577 L116.510784,19.3179401 C116.517576,19.3833932 116.494547,19.4484252 116.448101,19.4949569 C116.401655,19.5414886 116.336743,19.5645592 116.27141,19.557755 L114.792424,19.557755 C114.638541,19.557755 114.55305,19.5020837 114.55305,19.4164355 L114.55305,19.2708336 C114.583939,18.886247 114.445746,18.5073081 114.17466,18.2332537 C113.903575,17.9591992 113.526599,17.8173275 113.142456,17.844792 C112.355943,17.844792 111.860098,18.2730327 111.860098,18.8896994 C111.860098,19.8061346 113.142456,19.947454 114.463285,20.5298614 C115.916625,21.176505 116.549255,22.080093 116.549255,23.3219911 C116.570627,24.8807874 115.625957,25.9813662 113.907597,26.2083338 Z" id="Path"></path>
                    <ellipse id="Oval" cx="113.129633" cy="21.2150457" rx="8.0104637" ry="8.02523123"></ellipse>
                    <path d="M49.7255758,11.2841434 C49.6920748,11.2901276 49.6672058,11.3186019 49.6657324,11.3526619 L49.6657324,11.7809026 C49.6717303,11.8252788 49.6563795,11.8698769 49.6243541,11.901117 C49.5923287,11.9323571 49.5474192,11.9465417 49.5033004,11.9393517 L48.9476118,11.9393517 C48.9034929,11.9465417 48.8585835,11.9323571 48.8265581,11.901117 C48.7945327,11.8698769 48.7791818,11.8252788 48.7851798,11.7809026 L48.8065524,11.3526619 C48.8037254,11.3215143 48.7813564,11.2956564 48.7509836,11.2884258 C47.6738027,11.1556712 47.0411727,10.5047452 47.0411727,9.57546283 L47.0411727,9.16863413 C47.0371914,9.12437222 47.0530213,9.08062256 47.0843882,9.04919784 C47.1157551,9.01777313 47.1594242,9.00191404 47.2036047,9.00590264 L48.1824714,9.00590264 C48.2893346,9.00590264 48.3449035,9.05300913 48.3449035,9.13009246 L48.3449035,9.26284709 C48.3305509,9.51548859 48.4284478,9.76155713 48.6123315,9.93504045 C48.7962153,10.1085238 49.0472617,10.1916623 49.298123,10.1621526 C49.5139884,10.1919227 49.7321336,10.1264633 49.8961208,9.98270993 C50.0601081,9.83895658 50.1538261,9.63103262 50.1530285,9.41273135 C50.1530285,8.74467579 48.9262392,8.63761561 48.0157649,8.0509258 C47.4105252,7.73781192 47.0370118,7.10582622 47.0539962,6.42361099 C47.0248631,5.44219652 47.7849639,4.61787049 48.7638071,4.56932859 C48.7958581,4.5637502 48.8203034,4.53751054 48.8236505,4.50509248 L48.8022779,3.995486 C48.7947419,3.95043107 48.8094101,3.90450558 48.8416535,3.87220274 C48.8738969,3.8398999 48.9197379,3.82520464 48.9647099,3.83275451 L49.5033004,3.83275451 C49.5471745,3.82852708 49.5905929,3.84447552 49.6213414,3.87611332 C49.65209,3.90775111 49.6668458,3.95165935 49.6614579,3.995486 L49.6614579,4.49652766 C49.662883,4.52825407 49.6858828,4.55484116 49.7170267,4.56076377 C50.8497764,4.68495359 51.4909555,5.37442118 51.4909555,6.34652765 L51.4909555,6.65914339 C51.5177313,6.71534764 51.5058621,6.78238983 51.4614259,6.82594021 C51.4169896,6.86949059 51.3498261,6.87990544 51.2943273,6.85185173 L50.3069115,6.85185173 C50.2000483,6.85185173 50.1444794,6.81759247 50.1444794,6.75763876 L50.1444794,6.6634258 C50.1663954,6.40632427 50.074854,6.15249881 49.8939673,5.96880743 C49.7130805,5.78511605 49.4609852,5.6899766 49.2040834,5.70844895 C48.6740421,5.70844895 48.349178,5.98252303 48.349178,6.41076376 C48.349178,7.02314802 49.2040834,7.11736098 50.0931851,7.50706006 C51.0677773,7.9353008 51.4909555,8.54768505 51.4909555,9.37847209 C51.5080536,10.397685 50.8668745,11.1342591 49.7255758,11.2841434 Z" id="Path"></path>
                    <ellipse id="Oval" transform="translate(49.202482, 7.943718) rotate(-45.000000) translate(-49.202482, -7.943718) " cx="49.202482" cy="7.94371835" rx="5.3645317" ry="5.37442138"></ellipse>
                    <path d="M8.20281757,65.1225675 C8.17077996,65.1268843 8.14696026,65.1544193 8.14724872,65.1868036 L8.14724872,65.6150444 C8.14724872,65.7306694 8.09167987,65.7777759 7.98909122,65.7777759 L7.43767723,65.7777759 C7.33508858,65.7777759 7.27951973,65.7306694 7.27951973,65.6150444 L7.27951973,65.1868036 C7.27850975,65.1540341 7.25576067,65.1259836 7.22395088,65.1182851 C6.14677006,64.9898129 5.51414006,64.3346045 5.51414006,63.4267342 L5.51414006,62.9984934 C5.50845995,62.9549729 5.52328627,62.9112787 5.55426478,62.880243 C5.5852433,62.8492074 5.6288571,62.8343537 5.67229756,62.8400443 L6.65543878,62.8400443 C6.75802743,62.8400443 6.81359628,62.8871508 6.81359628,62.9642341 L6.81359628,63.0969888 C6.80055586,63.3489048 6.89902636,63.5937694 7.08274245,63.7662691 C7.26645855,63.9387689 7.51673535,64.0213597 7.76681581,63.9920119 C7.98194167,64.0216789 8.19937012,63.9567709 8.36320075,63.8139754 C8.52703138,63.67118 8.62128209,63.4644273 8.62172122,63.246873 C8.62172122,62.5745351 7.39493196,62.4717573 6.4844577,61.8850675 C5.75499738,61.5044903 5.36568246,60.6856142 5.53041112,59.8783476 C5.69513977,59.0710809 6.37400738,58.4709797 7.19402919,58.4077526 C7.22672791,58.4015048 7.25018742,58.3725783 7.24959804,58.3392341 L7.24959804,57.8296276 C7.2419902,57.785705 7.25618323,57.74082 7.2876473,57.7092979 C7.31911137,57.6777758 7.36391382,57.6635566 7.40775554,57.6711785 L7.94634595,57.6711785 C7.99009194,57.6657806 8.03391938,57.6805637 8.06549896,57.7113689 C8.09707853,57.7421741 8.11299763,57.7856726 8.10877798,57.8296276 L8.10877798,58.3306692 C8.11169368,58.364132 8.13590282,58.3918506 8.16862135,58.3991878 C9.29709649,58.5190952 9.94255008,59.2085628 9.94255008,60.1849517 L9.94255008,60.4975674 C9.94676973,60.5415224 9.93085064,60.5850209 9.89927106,60.6158261 C9.86769149,60.6466313 9.82386405,60.6614144 9.78011805,60.6560165 L8.79697683,60.6560165 C8.69438818,60.6560165 8.63881933,60.6174748 8.63881933,60.5618035 L8.63881933,60.4675906 C8.65548478,60.2122099 8.56116707,59.9620751 8.38012406,59.781519 C8.19908105,59.600963 7.94898134,59.5076067 7.69414885,59.5254609 C7.1641075,59.5254609 6.83924344,59.799535 6.83924344,60.2234933 C6.83924344,60.84016 7.69414885,60.934373 8.58752501,61.3197897 C9.55784264,61.7480304 9.98102082,62.3604147 9.98102082,63.1912017 C9.98529535,64.2361092 9.35266535,64.9684008 8.20281757,65.1225675 Z" id="Path"></path>
                    <ellipse id="Oval" transform="translate(7.679346, 61.778579) rotate(-45.000000) translate(-7.679346, -61.778579) " cx="7.67934577" cy="61.7785789" rx="5.3645317" ry="5.37442138"></ellipse>
                    <path d="M184.753605,138.668634 C184.721567,138.672951 184.697748,138.700486 184.698036,138.73287 L184.698036,139.161111 C184.698036,139.276736 184.642467,139.323842 184.539879,139.323842 L183.979916,139.323842 C183.877327,139.323842 183.821758,139.276736 183.821758,139.161111 L183.821758,138.73287 C183.820748,138.700101 183.797999,138.67205 183.766189,138.664352 C182.689008,138.531597 182.056378,137.880671 182.056378,136.972801 L182.056378,136.565972 C182.050698,136.522452 182.065525,136.478757 182.096503,136.447722 C182.127482,136.416686 182.171095,136.401832 182.214536,136.407523 L183.197677,136.407523 C183.300266,136.407523 183.355835,136.454629 183.355835,136.531713 L183.355835,136.660185 C183.341482,136.912827 183.439379,137.158895 183.623263,137.332378 C183.807146,137.505862 184.058193,137.589 184.309054,137.559491 C184.52418,137.589158 184.741608,137.52425 184.905439,137.381454 C185.06927,137.238659 185.16352,137.031906 185.16396,136.814352 C185.16396,136.142014 183.93717,136.039236 183.026696,135.452546 C182.297236,135.071969 181.907921,134.253093 182.072649,133.445826 C182.237378,132.63856 182.916246,132.038458 183.736268,131.975231 C183.768077,131.967533 183.790826,131.939482 183.791836,131.906713 L183.791836,131.397106 C183.784229,131.353184 183.798422,131.308299 183.829886,131.276777 C183.86135,131.245255 183.906152,131.231035 183.949994,131.238657 L184.488584,131.238657 C184.53233,131.233259 184.576158,131.248042 184.607737,131.278848 C184.639317,131.309653 184.655236,131.353151 184.651016,131.397106 L184.651016,131.898148 C184.652831,131.931242 184.67803,131.958291 184.71086,131.962384 C185.839335,132.086574 186.484788,132.776041 186.484788,133.75243 L186.484788,134.039352 C186.49043,134.084005 186.47514,134.128763 186.443371,134.16059 C186.411603,134.192417 186.366928,134.207735 186.322356,134.202083 L185.330666,134.202083 C185.228077,134.202083 185.172509,134.163541 185.172509,134.10787 L185.172509,134.039352 C185.194587,133.78145 185.102492,133.526847 184.92062,133.342991 C184.738748,133.159135 184.485454,133.06458 184.227838,133.084375 C183.697797,133.084375 183.372933,133.358449 183.372933,133.782407 C183.372933,134.399074 184.227838,134.493287 185.121214,134.878704 C186.091532,135.306944 186.51471,135.919329 186.51471,136.750116 C186.536083,137.777893 185.903453,138.514467 184.753605,138.668634 Z" id="Path"></path>
                    <ellipse id="Oval" cx="184.232127" cy="135.324073" rx="5.3645317" ry="5.37442138"></ellipse>
                </g>
                <g id="pc" transform="translate(20.517731, 46.250000)" fill-rule="nonzero">
                    <path d="M146.552165,129.547111 C146.552165,130.977435 113.817835,132.137967 73.4577497,132.137967 C33.097664,132.137967 0.363334826,130.977435 0.363334826,129.547111 C0.363334826,128.116787 33.097664,126.977666 73.4791224,126.977666 C113.860581,126.977666 146.552165,128.121069 146.552165,129.547111 Z" id="Path" fill="#CCCCCC"></path>
                    <path d="M68.1787118,106.293631 C68.1787118,106.293631 71.7351185,121.607519 70.1877396,124.121293 C68.1616137,127.414464 46.6137215,129.397218 46.6137215,129.397218 L94.1293672,129.397218 C94.1293672,129.397218 100.083784,127.722797 98.2927568,122.926501 C96.9078099,119.217936 90.26092,106.293631 90.26092,106.293631 L68.1787118,106.293631 Z" id="Path" stroke="#263238" fill="#FFFFFF" stroke-linecap="round" stroke-linejoin="round"></path>
                    <path d="M67.1357262,106.293631 C67.1357262,106.293631 70.9315063,121.735991 69.1447539,124.121292 C67.3580016,126.506593 46.6137215,128.335181 46.6137215,128.335181 L94.3516404,128.335181 C94.3516404,128.335181 98.3654214,126.712149 97.2497698,122.9265 C96.1341182,119.140852 89.2222079,106.293631 89.2222079,106.293631 L67.1357262,106.293631 Z" id="Path" stroke="#263238" fill="#FFFFFF" stroke-linecap="round" stroke-linejoin="round"></path>
                    <path d="M89.2222047,106.293631 L67.135723,106.293631 C67.135723,106.293631 69.3841242,115.440853 69.6021251,120.742473 L96.424783,120.742473 C94.2533232,115.646408 89.2222047,106.293631 89.2222047,106.293631 Z" id="Path" stroke="#263238" fill="#263238" stroke-linecap="round" stroke-linejoin="round"></path>
                    <rect id="Rectangle" stroke="#263238" fill="#FFFFFF" stroke-linecap="round" stroke-linejoin="round" x="46.6137215" y="128.412265" width="47.5113718" height="1"></rect>
                    <rect id="Rectangle" stroke="#263238" fill="#FFFFFF" stroke-linecap="round" stroke-linejoin="round" x="8.11732681" y="0.0813657432" width="143.359088" height="107.715398" rx="8.48"></rect>
                    <rect id="Rectangle" stroke="#263238" fill="#263238" stroke-linecap="round" stroke-linejoin="round" x="4.7404506" y="0.0813657432" width="143.359088" height="107.715398" rx="8.48"></rect>
                    <path d="M4.7404506,91.056826 L148.099538,91.056826 L148.099538,104.165276 C148.099538,106.170888 146.476661,107.796757 144.474739,107.796757 L8.36524953,107.796757 C7.40389308,107.796757 6.48191129,107.414156 5.80212963,106.733121 C5.12234797,106.052086 4.7404506,105.128404 4.7404506,104.165276 L4.7404506,91.056826 Z" id="Path" stroke="#263238" fill="#FFFFFF" stroke-linecap="round" stroke-linejoin="round"></path>
                    <rect id="Rectangle" stroke="#263238" fill="#FFFFFF" stroke-linecap="round" stroke-linejoin="round" x="11.9515776" y="6.78333355" width="128.936838" height="76.1026619"></rect>
                    <rect id="Rectangle-Copy" stroke="#263238" fill="#444D52" stroke-linecap="round" stroke-linejoin="round" x="11.9515776" y="9.81060606" width="25.8803191" height="72.8787879"></rect>
                    <rect id="Rectangle-Copy" fill="url(#linearGradient-1)" x="42.6675532" y="17.5189394" width="58.0558511" height="6.30681818"></rect>
                    <rect id="Rectangle-Copy-2" fill="url(#linearGradient-2)" x="42.6675532" y="30.1325758" width="93.7287234" height="4.90530303"></rect>
                    <rect id="Rectangle-Copy-3" fill="url(#linearGradient-2)" x="42.6675532" y="36.4393939" width="93.7287234" height="4.90530303"></rect>
                    <rect id="Rectangle-Copy-4" fill="url(#linearGradient-2)" x="42.6675532" y="42.7462121" width="93.7287234" height="4.90530303"></rect>
                    <rect id="Rectangle-Copy-5" fill="url(#linearGradient-2)" x="42.6675532" y="49.0530303" width="93.7287234" height="4.90530303"></rect>
                    <rect id="Rectangle-Copy-6" fill="url(#linearGradient-2)" x="42.6675532" y="55.3598485" width="93.7287234" height="4.90530303"></rect>
                    <rect id="Rectangle-Copy-7" fill="url(#linearGradient-2)" x="42.6675532" y="61.6666667" width="93.7287234" height="4.90530303"></rect>
                    <rect id="Rectangle-Copy-8" fill="url(#linearGradient-2)" x="42.6675532" y="67.9734848" width="93.7287234" height="4.90530303"></rect>
                    <rect id="Rectangle-Copy-9" fill="url(#linearGradient-2)" x="42.6675532" y="74.280303" width="93.7287234" height="4.90530303"></rect>
                    <rect id="Rectangle" stroke="#263238" fill="#0057FF" stroke-linecap="round" stroke-linejoin="round" x="11.9515776" y="6.78333355" width="128.936838" height="6.30681818"></rect>
                    <path d="M79.0787507,99.4289367 C79.0804794,98.3560066 78.4364532,97.387841 77.4473489,96.976448 C76.4582446,96.565055 75.3191461,96.7915748 74.5618651,97.5502519 C73.804584,98.308929 73.5784811,99.4501275 73.9891171,100.441055 C74.3997531,101.431983 75.3661371,102.077196 76.4370929,102.075464 C77.8950642,102.073107 79.0763972,100.889596 79.0787507,99.4289367 Z" id="Path" stroke="#263238" fill="#263238" stroke-linecap="round" stroke-linejoin="round"></path>
                </g>
                <g id="ch" transform="translate(133.365252, 81.793981)">
                    <path d="M39.0990993,100.126971 C39.0990993,101.839934 31.4989902,103.206022 22.1206778,103.206022 C12.7423654,103.206022 5.12943274,101.827087 5.12943274,100.126971 C5.12943274,98.4268557 12.7338164,97.0479205 22.1078542,97.0479205 C31.4818921,97.0479205 39.0990993,98.4268557 39.0990993,100.126971 Z" id="Path" fill="#CCCCCC" fill-rule="nonzero"></path>
                    <path d="M11.6267141,21.1979172 C11.6267141,21.1979172 9.79721641,21.8831024 9.22870429,24.4611117 C8.66019217,27.0391209 7.45477548,34.8245376 6.82641998,38.4902783 C6.19806447,42.1560191 2.82546247,54.0611117 2.82546247,54.0611117 L4.59939128,55.2644682 C4.59939128,55.2644682 8.94231096,48.9093756 10.1562767,45.9331024 C11.3702424,42.9568293 12.5542865,40.8927089 12.7209931,38.6016209 C12.8876996,36.310533 12.6098553,23.7159728 12.6098553,22.7567135 C12.6098553,21.7974543 12.1439319,21.0822922 11.6267141,21.1979172 Z" id="Path" stroke="#263238" fill="#0057FF" fill-rule="nonzero" stroke-linecap="round" stroke-linejoin="round"></path>
                    <path d="M13.2852309,95.9558979 C13.2852309,95.9558979 8.77133012,98.8764998 8.25411232,99.9042776 C7.73689453,100.932055 8.71148673,101.223259 11.2462814,100.880666 C13.781076,100.538074 15.5208086,99.2190924 16.7304998,98.5296248 C17.940191,97.8401572 18.5044286,97.7887683 18.102623,96.2428192 C17.7008175,94.6968701 13.2852309,95.9558979 13.2852309,95.9558979 Z" id="Path" stroke="#263238" fill="#FFFFFF" fill-rule="nonzero" stroke-linecap="round" stroke-linejoin="round"></path>
                    <path d="M30.9433024,96.4141211 C30.9433024,96.4141211 35.918852,99.7886582 35.6452822,100.533797 C35.3717125,101.278936 33.8713535,101.621529 31.2425193,100.765047 C28.6136851,99.9085657 28.0408985,99.219098 26.9679922,98.3026628 C25.8950859,97.3862276 26.2840679,96.2428248 26.2840679,95.4377322 C26.2840679,94.6326396 30.9433024,96.4141211 30.9433024,96.4141211 Z" id="Path" stroke="#263238" fill="#FFFFFF" fill-rule="nonzero" stroke-linecap="round" stroke-linejoin="round"></path>
                    <path d="M10.9427895,44.1087951 C10.9427895,44.1087951 9.91262847,53.1532398 9.79721624,60.3819438 C9.68180401,67.6106477 12.998837,95.1165513 12.998837,95.4034726 L12.998837,96.2599541 C13.8476984,96.645466 14.7579598,96.8774379 15.6875145,96.9451394 C16.6593039,96.9692758 17.6316359,96.9306541 18.5984675,96.8295143 C18.5984675,96.8295143 18.5984675,91.7334494 18.7138797,87.7850696 C18.8292919,83.8366899 19.4576474,65.8163189 19.4576474,65.8163189 L19.6286285,58.030902 L20.7699272,58.7760409 L26.1430077,96.9451394 L30.9433016,96.4312504 C30.9433016,96.4312504 31.5160882,71.0280089 31.400676,64.0434022 C31.2852638,57.0587955 29.9216896,44.7297442 29.9216896,44.7297442 L10.9427895,44.1087951 Z" id="Path" stroke="#263238" fill="#263238" fill-rule="nonzero" stroke-linecap="round" stroke-linejoin="round"></path>
                    <path d="M19.9150223,18.5085642 C19.9150223,18.5085642 12.314913,20.8553235 11.6267141,21.1979161 C10.9385152,21.5405088 10.4854153,23.3733792 10.4854153,25.6644672 C10.4854153,27.9555553 11.3403208,39.2910881 11.2291831,40.6528937 C11.1180454,42.0146994 10.4298465,43.744792 10.9983586,44.7168985 C11.5668707,45.6890051 19.1199602,46.318519 23.172212,46.1472227 C27.2244637,45.9759264 29.5156103,46.3784727 30.0883969,45.2307874 C30.6611836,44.0831022 31.0031457,29.9468748 31.5716579,26.6793978 C32.14017,23.4119209 32.54625,21.6989578 31.4006768,20.7825226 C30.2551035,19.8660874 24.202373,18.7783559 22.7148376,18.4357633 L19.9150223,18.5085642 Z" id="Path" stroke="#263238" fill="#0057FF" fill-rule="nonzero" stroke-linecap="round" stroke-linejoin="round"></path>
                    <path d="M19.6628256,17.0653936 C19.6628256,17.0653936 18.4018401,17.4936343 17.9829364,18.4400463 C17.5640328,19.3864583 16.3073218,24.0971063 16.7646962,24.3240739 C17.2220706,24.5510415 20.7699281,22.8337962 21.304244,22.9494212 C21.8385598,23.0650462 24.0100196,25.891435 24.6597477,25.5188655 C25.3094758,25.1462961 26.835482,21.1251157 26.2626954,19.0609954 C25.6899087,16.996875 20.2313377,16.5300927 19.6628256,17.0653936 Z" id="Path" stroke="#263238" fill="#FFFFFF" fill-rule="nonzero" stroke-linecap="round" stroke-linejoin="round"></path>
                    <path d="M18.9703513,15.7678245 C18.9703513,15.7678245 18.9318806,17.8662041 18.9318806,18.9368059 C18.9318806,20.0074077 19.8509039,23.827315 20.6416915,23.6774308 C21.432479,23.5275465 24.7623358,19.7804401 25.2966517,18.7826392 C25.8309676,17.7848383 25.9421054,15.7292828 25.9421054,15.7292828 C25.9421054,15.7292828 23.5782917,17.4079865 21.7872648,16.8726856 C20.8148052,16.5966291 19.8714056,16.2266051 18.9703513,15.7678245 L18.9703513,15.7678245 Z" id="Path" stroke="#263238" fill="#CCCCCC" fill-rule="nonzero" stroke-linecap="round" stroke-linejoin="round"></path>
                    <path d="M21.8000885,16.8726856 C20.8247033,16.5971534 19.878417,16.2271202 18.9746259,15.7678245 C18.9746259,15.7678245 18.9746259,16.5943292 18.9489788,17.4807875 C19.2097249,18.0417829 19.4576475,18.5128477 19.6329031,18.8468755 C20.105728,19.9388274 21.3544898,20.4623088 22.4626402,20.0331024 C23.703492,19.4847656 24.8072602,18.6671149 25.6941828,17.6392366 C25.8276453,17.0127255 25.9147972,16.3772049 25.954929,15.7378477 C25.954929,15.7378477 23.5868409,17.4079866 21.8000885,16.8726856 Z" id="Path" stroke="#263238" fill="#263238" fill-rule="nonzero" stroke-linecap="round" stroke-linejoin="round"></path>
                    <path d="M18.0727005,9.61828723 C18.0727005,9.61828723 17.8589741,8.09375019 17.1408535,8.71469927 C16.422733,9.33564834 16.5509688,10.8944446 16.892931,11.6438659 C17.2348931,12.3932872 17.606777,12.2990743 17.7008166,12.264815 C17.7948562,12.2305557 18.0727005,9.61828723 18.0727005,9.61828723 Z" id="Path" stroke="#263238" fill="#CCCCCC" fill-rule="nonzero" stroke-linecap="round" stroke-linejoin="round"></path>
                    <path d="M28.0237999,11.0828707 C28.1178395,10.928704 29.2676873,7.06597241 29.3318052,4.97615754 C29.3959231,2.88634267 26.3781069,0.929282432 24.2322943,0.522453717 C22.0864817,0.115625003 18.9147825,0.646643536 18.2479563,1.86284727 C17.58113,3.07905101 17.499914,7.85821781 17.499914,8.6547456 C17.499914,9.4512734 18.123995,9.58831045 18.277878,9.39988451 C18.4317609,9.21145858 18.9019589,4.50937512 19.1798032,4.16678252 C19.4576475,3.82418992 24.4331971,3.982639 25.211161,4.19675937 C25.989125,4.41087975 26.4251267,5.22881959 26.2712437,6.41076406 C26.1173608,7.59270854 26.3011654,7.53275483 26.6132059,8.21794004 C26.9252464,8.90312524 26.9209719,9.15150488 26.9209719,10.0850697 C26.9209719,11.0186346 27.3569736,12.1406253 28.0237999,11.0828707 Z" id="Path" stroke="#263238" fill="#263238" fill-rule="nonzero" stroke-linecap="round" stroke-linejoin="round"></path>
                    <path d="M18.7608993,4.01261566 C18.23182,6.30004967 17.8576587,8.62069262 17.6409731,10.9586803 C17.4828156,13.7293978 19.0088219,16.5943283 19.6286283,17.7805551 C20.2484348,18.966782 21.3726355,19.3693283 22.4583654,18.9624996 C23.9466375,18.3005981 25.2414406,17.2687424 26.2199494,15.9648144 C27.3697973,14.4702543 27.9639566,10.8858794 27.9639566,10.8858794 C27.9639566,10.8858794 27.4937586,11.134259 27.4638369,10.7317127 C27.4339152,10.3291664 27.7459557,8.92453684 27.4339152,8.0209489 C27.1218747,7.11736096 26.4379503,6.89895818 26.8440304,6.02534709 C27.1034386,5.53645267 27.291988,5.01302064 27.4039935,4.47083324 C27.4039935,4.31238417 25.8480656,3.37881938 23.0183285,3.13043975 C20.1885914,2.88206013 18.9147823,3.23321753 18.7608993,4.01261566 Z" id="Path" stroke="#263238" fill="#CCCCCC" fill-rule="nonzero" stroke-linecap="round" stroke-linejoin="round"></path>
                    <path d="M19.0686662,6.56493055 C19.0686662,6.56493055 19.902199,5.84120371 21.0605959,6.67627314" id="Path" stroke="#263238" stroke-linecap="round" stroke-linejoin="round"></path>
                    <path d="M23.2748016,6.89467566 C23.2748016,6.89467566 25.2667313,6.09386548 26.0660678,7.51134233" id="Path" stroke="#263238" stroke-linecap="round" stroke-linejoin="round"></path>
                    <path d="M27.6519169,11.3312497 C27.6519169,11.3312497 28.2717233,9.93090249 29.1736485,9.86666638 C30.0755738,9.80243027 29.9516125,11.5796293 29.1138052,12.7358793 C28.2759979,13.8921292 27.0620322,14.3546292 27.0278359,13.510995" id="Path" stroke="#263238" fill="#CCCCCC" fill-rule="nonzero" stroke-linecap="round" stroke-linejoin="round"></path>
                    <path d="M21.5564402,8.80891213 C21.5564402,8.80891213 20.5305537,11.7680557 20.7485546,12.1748844 C20.9665555,12.5817131 21.8043628,13.0313659 22.8302493,12.5474539" id="Path" stroke="#263238" stroke-linecap="round" stroke-linejoin="round"></path>
                    <path d="M21.9625211,13.9478009 C22.874063,14.260988 23.8821918,14.0848462 24.6341006,13.4810185" id="Path" stroke="#263238" stroke-linecap="round" stroke-linejoin="round"></path>
                    <path d="M20.5177306,8.91597225 C20.5177306,9.25428245 20.3980439,9.52407412 20.25271,9.52407412 C20.1073761,9.52407412 19.9876893,9.25428245 19.9876893,8.91597225 C19.9876893,8.57766206 20.1073761,8.31215279 20.25271,8.31215279 C20.3980439,8.31215279 20.5177306,8.56481483 20.5177306,8.91597225 Z" id="Path" fill="#263238" fill-rule="nonzero"></path>
                    <ellipse id="Oval" fill="#263238" fill-rule="nonzero" cx="24.1553523" cy="9.32280115" rx="1" ry="1"></ellipse>
                    <path d="M21.5863623,8.73182854 C21.5863623,9.72044385 20.786406,10.5218749 19.7996099,10.5218749 C18.8128138,10.5218749 18.0128575,9.72044385 18.0128575,8.73182854 C18.0128575,7.74321322 18.8128138,6.94178216 19.7996099,6.94178216 C20.786406,6.94178216 21.5863623,7.74321322 21.5863623,8.73182854 L21.5863623,8.73182854 Z" id="Path" stroke="#263238" stroke-linecap="round" stroke-linejoin="round"></path>
                    <path d="M26.2242239,9.11724546 C26.2218644,10.1573324 25.3787632,10.9987952 24.3405888,10.9972202 C23.3024143,10.9956452 22.4618608,10.1516282 22.4626455,9.11153882 C22.4634302,8.07144948 23.3052563,7.2287064 24.343432,7.22870372 C24.8429905,7.22870242 25.3220262,7.42780978 25.6748662,7.78210369 C26.0277063,8.13639761 26.2253592,8.61676724 26.2242239,9.11724546 L26.2242239,9.11724546 Z" id="Path" stroke="#263238" stroke-linecap="round" stroke-linejoin="round"></path>
                    <path d="M21.586362,8.40208348 C21.8742728,8.25490359 22.2249695,8.31990209 22.4412674,8.56053255" id="Path" stroke="#263238" stroke-linecap="round" stroke-linejoin="round"></path>
                    <path d="M26.1900293,9.30567147 L28.4298815,10.2435187" id="Path" stroke="#263238" stroke-linecap="round" stroke-linejoin="round"></path>
                    <path d="M3.28283675,52.7464107 L5.68512102,53.7185171" id="Path" stroke="#263238" fill="#FFFFFF" fill-rule="nonzero" stroke-linecap="round" stroke-linejoin="round"></path>
                    <path d="M1.06863179,60.0778942 C1.06863179,60.0778942 1.40631944,62.0563663 1.63714391,62.1634265 C1.86796839,62.2704867 1.94918441,61.1998849 1.87224291,60.5232645 L1.79530142,59.8466442 C1.79530142,59.8466442 2.15863624,61.6152784 2.52197106,61.7737275 C2.88530588,61.9321765 2.68012857,61.148496 2.57326539,60.7545145 L2.47067673,60.3648155 C2.47067673,60.3648155 3.38115104,61.3283571 3.45809253,61.0928247 C3.53503402,60.8572923 2.91095304,59.6881951 2.88530588,59.6111118 C2.74522462,59.1627665 2.63807539,58.7047536 2.56471633,58.2407414 C2.53906917,57.8767368 2.02185137,56.4164359 1.50035904,57.3285887 C0.978866715,58.2407414 1.06863179,60.0778942 1.06863179,60.0778942 Z" id="Path" stroke="#263238" fill="#CCCCCC" fill-rule="nonzero" stroke-linecap="round" stroke-linejoin="round"></path>
                    <path d="M2.82546238,54.0611117 C2.82546238,54.0611117 1.11565156,56.8104172 0.654002643,57.7268523 C0.192353722,58.6432875 -0.145333915,62.0777782 0.256471628,62.3090282 C0.65827717,62.5402782 0.765140346,61.7009263 0.859179941,61.1228014 C1.02308746,60.4356614 1.26698126,59.7701848 1.58584954,59.1400468 C1.58584954,59.1400468 1.3422015,61.3326393 1.68416366,61.2812504 C2.02612582,61.2298615 2.31251914,59.2214125 2.53906907,58.711806 C2.765619,58.2021996 4.14201671,57.4527783 4.59939111,55.2858802 L2.82546238,54.0611117 Z" id="Path" stroke="#263238" fill="#CCCCCC" fill-rule="nonzero" stroke-linecap="round" stroke-linejoin="round"></path>
                    <path d="M1.58584961,59.140046 C1.58584961,59.140046 1.58584961,58.8488423 1.79530144,57.7611108" id="Path" stroke="#263238" fill="#FFFFFF" fill-rule="nonzero" stroke-linecap="round" stroke-linejoin="round"></path>
                    <path d="M31.1741263,20.6840276 C32.4698814,21.6640614 33.4602942,22.993483 34.0295104,24.5167823 C35.1152403,27.2104166 38.8298043,38.9484955 38.9452165,39.1754631 C39.0606287,39.4024307 38.9452165,41.6935187 37.1157189,42.4386576 C35.2862214,43.1837965 34.4313159,41.5821761 33.3455861,39.7493057 C32.2598562,37.9164353 29.7464343,29.7841435 29.7464343,29.7841435" id="Path" stroke="#263238" fill="#0057FF" fill-rule="nonzero" stroke-linecap="round" stroke-linejoin="round"></path>
                    <path d="M35.8590075,35.8565981 L44.7329262,31.4885426 L46.2760306,33.2657417 C46.2760306,33.2657417 39.7531019,41.2353017 38.3168607,42.1517369 C36.8806196,43.068172 35.1152398,42.8412044 34.4313154,41.2952554" id="Path" stroke="#263238" fill="#0057FF" fill-rule="nonzero" stroke-linecap="round" stroke-linejoin="round"></path>
                    <path d="M43.7626093,32.1180547 L45.4168514,34.1222213" id="Path" stroke="#263238" fill="#FFFFFF" fill-rule="nonzero" stroke-linecap="round" stroke-linejoin="round"></path>
                    <path d="M44.7329271,31.4885412 C44.7329271,31.4885412 46.677837,28.4565968 47.2463491,28.2253468 C47.8148613,27.9940968 49.417809,27.6557867 50.3325579,26.9663191 C51.2473067,26.2768515 51.76025,26.4524302 51.2473067,27.1975691 C50.7343634,27.9427079 50.1615768,28.0540505 49.6486335,28.2853005 C49.3875594,28.3917776 49.1382872,28.5252548 48.9048657,28.6835644 C48.9048657,28.6835644 50.3325579,28.7435181 51.2473067,28.7991894 C51.8028081,28.8321977 52.3602394,28.7933359 52.9058233,28.6835644 C52.9058233,28.6835644 55.2482643,27.6557867 54.6754776,28.9148144 C54.102691,30.1738421 54.1625344,30.9746523 51.8756622,31.6598375 C50.3895634,32.084043 48.8514318,32.2973855 47.3061925,32.2936337 L46.2760314,33.2657402 L44.7329271,31.4885412 Z" id="Path" stroke="#263238" fill="#CCCCCC" fill-rule="nonzero" stroke-linecap="round" stroke-linejoin="round"></path>
                    <path d="M53.705158,30.803357 C54.4395678,30.5380456 55.0095757,29.9464224 55.2482623,29.2017366 C55.6500679,27.9384264 55.4192434,27.8827551 54.9063001,28.3452551 C54.4045429,28.8621388 53.9979095,29.46379 53.705158,30.1224542 C53.4315883,30.687732 53.705158,30.803357 53.705158,30.803357 Z" id="Path" stroke="#263238" fill="#CCCCCC" fill-rule="nonzero" stroke-linecap="round" stroke-linejoin="round"></path>
                    <path d="M53.1922187,30.8590281 C53.1922187,30.8590281 53.876143,31.3172457 54.3933608,29.9425929 C54.9105786,28.5679402 54.8464607,27.4802088 54.3933608,27.7114588 C53.9402609,27.9427088 53.8205742,27.99838 53.2477875,29.2017365 C52.6750009,30.4050929 52.1620576,30.9146994 52.5040198,31.0303244 C52.7474997,31.0818724 53.0011298,31.0187425 53.1922187,30.8590281 L53.1922187,30.8590281 Z" id="Path" stroke="#263238" fill="#CCCCCC" fill-rule="nonzero" stroke-linecap="round" stroke-linejoin="round"></path>
                    <path d="M46.617996,31.3771984 C46.617996,31.3771984 47.4729015,29.9425918 48.4474937,29.9425918 C49.6361031,30.0308899 50.8190427,30.1838548 51.9910768,30.4008094 C51.9910768,30.4008094 53.8761434,27.6557862 54.2779489,28.0540501 C54.6797545,28.452314 53.6495934,30.3451381 53.192219,30.859027 C52.7348446,31.3729159 52.6750012,31.4328697 52.2774702,31.5484947" id="Path" stroke="#263238" fill="#CCCCCC" fill-rule="nonzero" stroke-linecap="round" stroke-linejoin="round"></path>
                    <path d="M19.6286285,58.0137726 L16.9997942,56.7547448" id="Path" stroke="#7D7D7D" stroke-linecap="round" stroke-linejoin="round"></path>
                </g>
            </g>
            <g id="lock" transform="translate(116.811170, 63.068182)" fill-rule="nonzero" stroke="#263238" stroke-linecap="round" stroke-linejoin="round">
                <path d="M34.3316833,33.6823207 L4.53922261,33.6823207 C3.8900107,33.6894915 3.26454957,33.4379745 2.80045355,32.9831086 C2.33635752,32.5282427 2.07164909,31.9072943 2.06456956,31.2568847 L2.06456956,17.4948205 C2.06456956,8.09961691 9.85355344,0.452233093 19.435453,0.452233093 C29.0173525,0.452233093 36.8278084,8.11575063 36.8278084,17.4948205 L36.8278084,31.2407509 C36.823607,31.8972957 36.5573685,32.5248619 36.0884529,32.9835289 C35.6195373,33.4421959 34.9869327,33.6938276 34.3316833,33.6823207 L34.3316833,33.6823207 Z M7.01387547,28.8422045 L31.857029,28.8422045 L31.857029,17.4948206 C31.6595022,10.7643446 26.156446,5.41086101 19.4354522,5.41086101 C12.7144584,5.41086101 7.2114023,10.7643446 7.01387547,17.4948206 L7.01387547,28.8422045 Z" id="Shape" fill="#FFFFFF"></path>
                <rect id="Rectangle" fill="#FFFFFF" x="0.223341783" y="27.0513612" width="37.9303662" height="31.4338654"></rect>
                <path d="M23.1340122,40.1035404 C23.0538477,37.8760493 21.2281647,36.1117586 19.0033279,36.1117586 C16.778491,36.1117586 14.952808,37.8760493 14.8726435,40.1035404 C14.8744875,41.5986008 15.7005581,42.9703369 17.0198478,43.6690929 L16.3273744,50.8109536 L21.6363372,50.8109536 L20.9438638,43.6690929 C22.2797944,42.9820064 23.123805,41.6079607 23.1340122,40.1035404 L23.1340122,40.1035404 Z" id="Path" fill="#263238"></path>
            </g>
        </g>
    </g>
</svg>