<svg xmlns="http://www.w3.org/2000/svg" width="112" height="32" viewBox="0 0 112 32">
  <path fill="#FFFFFF" d="M112,17v4.9h-2.9v-4.4c0-1.2-0.6-1.8-1.6-1.8c-0.5,0-1.1,0.3-1.6,0.8v5.4H103v-8.6h2.9v0.6 c0.7-0.5,1.4-0.8,2.4-0.8C110.5,13.1,112,14.5,112,17z"/>
  <path fill="#FFFFFF" d="M100.7,13.3V22c0,2.7-1.9,4.3-4.6,4.3c-2.6,0-4.5-1.5-4.7-3.7h2.9c0.1,0.8,0.8,1.3,1.8,1.3s1.8-0.6,1.8-1.8v-1 c-0.6,0.4-1.4,0.6-2.4,0.6c-2.3, 0-4.3-1.8-4.3-4.2c0-2.6,2-4.4,4.3-4.4c1,0,1.7,0.2,2.4,0.7v-0.5H100.7L100.7,13.3z M97.8,18.5v-2.3 c-0.6-0.6-1.2-0.8-1.8-0.8c-1.2,0-2.1,0.8-2.1,2c0,0.9,0.9,1.9,2.1,1.9C96.6,19.3,97.2,19.1,97.8,18.5z"/>
  <path fill="#FFFFFF" d="M85.8,10.3c0-0.9,0.8-1.6,1.7-1.6s1.7,0.7,1.7,1.6c0,0.9-0.8,1.6-1.7,1.6C86.5,11.9,85.8,11.2,85.8,10.3z M88.9,13.3v8.6H86v-8.6H88.9z"/>
  <path fill="#FFFFFF" d="M79.8,20c0.8,0,1.3-0.2,1.3-0.6c0-0.3-0.3-0.5-0.9-0.6l-1.8-0.3c-1.5-0.2-2.5-1-2.5-2.6c0-1.8,1.6-2.9,3.9-2.9 c2.1,0,3.9,0.7,4, 3h-2.6c-0.1-0.6-0.7-0.9-1.5-0.9c-0.7,0-1.1,0.3-1.1,0.6c0,0.3,0.2,0.6,0.9,0.7l1.6,0.3c1.6,0.3,2.7,1.1,2.7,2.6 c0,2-1.8,2.9-4.1,2.9c-2.2,0-4.1-0.9-4.3-3.2H78C78.2,19.7,78.9,20,79.8,20z"/>
  <polygon fill="#FFFFFF" points="69.4,18.9 68.2,20.2 68.2,21.9 65.3,21.9 65.3,9.3 68.2,9.3 68.2,16.5 71.2,13.3 74.7,13.3 71.4,16.8 75,21.9 71.5,21.9"/>
  <path fill="#FFFFFF" d="M60.6,18.9c-0.4,0.5-1,0.9-1.7,0.9c-1.2-0.1-2.1-1-2.1-2.2c0-1.2,0.9-2.1,2.1-2.1c0.7,0,1.3,0.3,1.7,0.9h2.7 c-0.5-2-2.3-3.4-4.4-3.4c-2.5,0-4.6,2.1-4.6,4.6s2.1,4.6,4.6,4.6c2.1,0,3.9-1.4,4.4-3.4L60.6,18.9L60.6,18.9z"/>
  <path fill="#FFFFFF" d="M49.3,10.3c0-0.9,0.8-1.6,1.7-1.6s1.7,0.7,1.7,1.6c0,0.9-0.8,1.6-1.7,1.6C50,11.9,49.3,11.2,49.3,10.3z M52.4,13.3v8.6h-2.9v-8.6H52.4z"/>
  <polygon fill="#FFFFFF" points="47,9.3 47,21.9 44,21.9 44,9.3"/>
  <path fill="#FFFFFF" d="M38.6,17.4C38.1,18.3,37,19,35.9,19c-1.7,0-3.2-1.4-3.2-3.2c0-1.7,1.4-3.2,3.2-3.2c0.8,0,1.6,0.3,2.2,0.9 c0.2,0.2,0.4,0.4,0.5, 0.7H42c-0.3-1-0.9-2-1.7-2.8c-1.2-1.2-2.8-1.8-4.5-1.8c-3.5,0-6.3,2.8-6.3,6.3s2.8,6.3,6.3,6.3 c2.9,0,5.4-2,6.1-4.7L38.6,17.4L38.6,17.4z"/>
  <path fill="#FFFFFF" d="M12.5,3.4C6.2,3.4,1,8,0,14h4.1c0.9-3.8,4.3-6.7,8.4-6.7s7.6,2.9,8.5,6.7h-5c-0.7-1.2-2-2-3.5-2 c-2.2,0-4,1.8-4,4s1.8,4,4,4c1.5,0,2.8-0.8, 3.5-2h5c-0.9,3.8-4.4,6.7-8.5,6.7S5,21.8,4.1,18H0c1,6,6.2,10.6,12.5,10.6 c7,0,12.7-5.7,12.7-12.6C25.2,9,19.6,3.4,12.5,3.4z"/>
</svg>
